<?xml version="1.0" standalone="no"?>
<!DOCTYPE svg PUBLIC "-//W3C//DTD SVG 20010904//EN"
 "http://www.w3.org/TR/2001/REC-SVG-20010904/DTD/svg10.dtd">
<svg version="1.0" xmlns="http://www.w3.org/2000/svg"
 width="358.000000pt" height="95.000000pt" viewBox="0 0 358.000000 95.000000"
 preserveAspectRatio="xMidYMid meet">

<g transform="translate(0.000000,95.000000) scale(0.100000,-0.100000)"
fill="#000000" stroke="none">
<path d="M551 789 c-13 -5 -29 -16 -35 -23 -6 -8 -40 -16 -77 -19 -209 -18
-355 -176 -250 -271 23 -21 66 -25 84 -7 8 8 5 11 -11 11 -26 0 -42 27 -42 74
0 56 55 111 137 136 36 11 77 20 91 20 23 0 24 -1 10 -17 -28 -32 -58 -102
-82 -191 -19 -73 -26 -88 -44 -90 -20 -3 -32 -22 -14 -22 4 0 13 -4 20 -9 10
-6 9 -19 -8 -63 -35 -94 -99 -131 -153 -88 -49 39 -32 102 33 121 46 14 51 26
15 35 -60 15 -114 -33 -122 -108 -6 -50 10 -89 52 -128 22 -21 36 -25 88 -25
46 0 69 5 89 20 35 26 72 95 92 169 8 32 18 62 23 66 4 5 27 11 50 15 l42 7
-6 -35 c-7 -45 14 -140 38 -171 24 -31 70 -42 106 -24 15 7 42 32 60 56 20 27
33 37 33 27 0 -52 65 -103 114 -91 31 8 90 67 106 106 14 33 30 40 30 13 0 -9
9 -36 20 -59 52 -106 158 -66 202 75 10 32 18 41 35 41 19 0 23 -6 23 -32 1
-54 33 -112 73 -131 19 -9 43 -17 54 -17 33 1 98 36 126 69 19 23 27 28 27 16
0 -32 32 -85 65 -105 44 -27 103 -26 146 3 50 34 84 98 143 268 57 165 102
263 134 292 17 16 17 10 -9 -62 -39 -110 -59 -216 -59 -310 0 -115 30 -182 74
-165 21 8 40 53 81 194 49 168 84 255 129 323 54 81 61 79 21 -5 -81 -172
-112 -369 -71 -451 22 -45 71 -73 110 -63 15 4 39 24 54 46 15 22 29 39 32 39
3 0 12 -14 20 -32 34 -73 99 -73 168 0 36 40 42 43 42 24 0 -27 53 -83 72 -76
7 3 19 33 25 66 13 68 60 171 82 177 11 4 12 -8 6 -64 -11 -93 -8 -125 14
-154 31 -42 67 -38 116 13 l42 45 16 -33 c29 -60 105 -70 152 -19 l23 25 30
-31 c39 -38 62 -38 107 1 35 31 115 178 115 212 0 39 -31 12 -60 -52 -18 -39
-43 -80 -57 -93 -24 -23 -25 -23 -39 -4 -8 11 -14 37 -14 59 0 57 36 224 64
299 14 36 22 68 19 72 -14 14 -55 4 -78 -18 -13 -14 -35 -60 -50 -109 l-27
-85 -27 11 c-64 24 -120 -18 -171 -127 -59 -128 -107 -154 -89 -48 23 129 23
138 -1 162 -16 16 -29 20 -48 16 -25 -6 -90 -67 -120 -111 -12 -19 -12 -18 -7
5 19 84 19 90 -6 90 -27 0 -69 -25 -69 -42 0 -40 -94 -188 -119 -188 -41 0
-53 86 -26 176 8 27 15 50 15 52 0 8 -58 -1 -71 -11 -9 -7 -37 -56 -61 -108
-25 -53 -52 -99 -61 -102 -22 -8 -45 17 -53 57 -10 54 24 251 63 369 39 118
37 134 -17 116 -71 -25 -154 -159 -219 -354 l-41 -120 0 81 c0 94 11 164 47
293 18 67 23 95 14 100 -19 12 -166 -8 -238 -33 -131 -44 -193 -102 -193 -177
0 -21 8 -47 19 -60 l18 -23 7 46 c13 88 87 157 205 192 77 23 89 21 64 -6 -25
-28 -72 -121 -113 -223 -41 -104 -94 -206 -125 -243 -15 -18 -44 -37 -66 -44
-35 -10 -43 -9 -67 9 -52 39 -36 105 30 125 21 6 38 15 38 19 0 12 -45 22 -68
15 -14 -5 -21 -1 -25 14 -8 29 -23 25 -38 -11 -23 -56 -86 -126 -124 -139 -31
-10 -39 -10 -56 6 -10 9 -19 29 -19 44 0 24 5 28 39 34 77 12 117 91 69 136
-42 39 -128 16 -170 -46 -13 -18 -30 -36 -38 -39 -20 -8 -40 22 -40 61 0 17
-9 42 -19 55 -45 54 -76 -36 -41 -117 16 -38 8 -73 -26 -114 -25 -29 -28 -30
-43 -15 -12 12 -17 41 -19 121 l-4 106 -26 -7 c-40 -10 -49 -21 -91 -109 -42
-89 -78 -130 -105 -120 -29 11 -33 77 -10 192 6 28 4 32 -16 32 -39 0 -58 -19
-95 -95 -39 -78 -95 -138 -119 -129 -19 7 -26 37 -26 120 l0 72 54 42 c65 50
99 91 132 165 26 57 26 84 -4 118 -20 22 -69 22 -108 -2 -16 -10 -45 -41 -62
-68 -33 -51 -82 -181 -82 -215 0 -12 -13 -24 -35 -34 -59 -24 -68 -20 -60 29
23 142 57 232 97 253 56 29 55 84 -1 63z m226 -65 c15 -40 -62 -175 -118 -205
-20 -10 -21 -9 -15 15 16 65 50 140 78 172 33 38 46 42 55 18z m708 -291 c8
-21 -36 -63 -65 -63 -23 0 -18 23 13 58 25 26 42 28 52 5z m1716 -15 c28 -52
-39 -199 -76 -168 -28 23 -13 131 23 173 20 23 39 22 53 -5z"/>
<path d="M855 595 c-28 -27 -31 -45 -13 -63 29 -29 98 1 98 43 0 23 -25 45
-50 45 -6 0 -22 -11 -35 -25z"/>
<path d="M2529 605 c-33 -18 -42 -40 -29 -66 15 -27 56 -24 85 6 31 30 31 40
3 59 -27 19 -26 19 -59 1z"/>
</g>
</svg>
